<svg width="117" height="90" viewBox="0 0 117 90" fill="none" xmlns="http://www.w3.org/2000/svg">
<path d="M107.326 -0.36084H10.6741C4.779 -0.36084 0 3.27697 0 7.76433V81.3362C0 85.8238 4.779 89.4616 10.6741 89.4616H107.326C113.221 89.4616 118 85.8238 118 81.3362V7.76433C118 3.27697 113.221 -0.36084 107.326 -0.36084ZM36.5142 77.1978C36.5142 78.5037 35.1235 79.5623 33.4079 79.5623H20.1851C18.4695 79.5623 17.0788 78.5037 17.0788 77.1978V35.0045C17.0788 33.6986 18.4695 32.64 20.1851 32.64H33.4079C35.1235 32.64 36.5142 33.6986 36.5142 35.0045V77.1978ZM26.7965 28.6626C19.8589 28.6626 14.2348 24.3815 14.2348 19.1005C14.2348 13.8196 19.8589 9.53844 26.7965 9.53844C33.7341 9.53844 39.3583 13.8196 39.3583 19.1005C39.3583 24.3815 33.7344 28.6626 26.7965 28.6626ZM105.616 77.3882C105.616 78.5889 104.337 79.5623 102.76 79.5623H88.5711C86.9938 79.5623 85.715 78.5889 85.715 77.3882V57.5972C85.715 54.6448 86.8526 44.6597 75.579 44.6597C66.8343 44.6597 65.0606 51.4942 64.7045 54.5614V77.3882C64.7045 78.5889 63.4259 79.5623 61.8484 79.5623H48.1252C46.5479 79.5623 45.2691 78.5889 45.2691 77.3882V34.8141C45.2691 33.6134 46.5479 32.64 48.1252 32.64H61.8484C63.4256 32.64 64.7045 33.6134 64.7045 34.8141V38.4951C67.947 34.791 72.7658 31.932 83.026 31.932C105.746 31.932 105.616 48.0897 105.616 56.9675V77.3882Z" fill="#0077B7"/>
</svg>

