<svg width="118" height="90" viewBox="0 0 118 90" fill="none" xmlns="http://www.w3.org/2000/svg">
<g clip-path="url(#clip0)">
<path d="M0 89.8225L8.13785 67.3668C2.84836 60.3979 0 52.6546 0 44.6014C0 20.1327 26.4484 0 58.7965 0C91.1446 0 118 20.1327 118 44.6014C118 69.0701 91.1449 89.8225 58.7965 89.8225C48.6241 89.8225 38.8586 87.3446 30.1103 83.6279L0 89.8225Z" fill="#e0ecf5"/>
<path d="M31.7378 75.5746L33.5689 76.3489C41.0965 79.9108 49.8449 82.079 59 82.079C85.6516 82.079 107.828 65.1985 107.828 44.6012C107.828 24.004 85.6516 7.74316 58.7965 7.74316C31.9413 7.74316 10.1724 24.1589 10.1724 44.6012C10.1724 51.7251 12.8173 58.6941 17.7 64.579L18.9208 65.9729L14.2416 78.9817L31.7378 75.5746Z" fill="#55CD6C"/>
<path d="M43.1311 23.8497L39.2657 23.6948C38.0449 23.6948 36.8243 24.0046 36.0105 24.6241C34.1794 25.863 31.1278 28.1859 30.314 31.2834C28.89 35.9295 31.1278 41.5046 36.4175 47.0797C41.7072 52.6549 51.8797 61.6371 69.7829 65.5088C75.4794 66.7477 79.9554 65.9733 83.6175 64.2698C86.4659 62.876 88.2967 60.708 88.9072 58.3849L89.5175 56.2167C89.721 55.5972 89.314 54.8229 88.5002 54.5132L75.6829 50.0221C74.8692 49.7123 73.8519 49.8672 73.2416 50.4867L68.1554 55.4423C67.7484 55.7522 67.1381 55.9069 66.5278 55.7522C63.0692 54.8229 51.4727 51.1061 45.1657 41.8142C44.9622 41.3497 44.9622 40.885 45.3692 40.5753L50.2519 36.394C50.6589 35.9295 50.8622 35.31 50.6589 34.8453L44.7589 24.779C44.5551 24.3143 43.9449 23.8497 43.1311 23.8497Z" fill="#FEFEFE"/>
</g>
<defs>
<clipPath id="clip0">
<rect width="118" height="89.8225" fill="black"/>
</clipPath>
</defs>
</svg>

